<svg width="25" height="25" viewBox="0 0 25 25" fill="none" xmlns="http://www.w3.org/2000/svg">
<g clip-path="url(#clip0_423_288)">
<path d="M24.1898 3.46344H0.810223C0.362774 3.46344 0 3.82627 0 4.27377V20.7263C0 21.1738 0.362774 21.5366 0.810223 21.5366H24.1897C24.6372 21.5366 25 21.1738 25 20.7263V4.27377C25 3.82627 24.6373 3.46344 24.1898 3.46344ZM22.1226 17.3659C22.4657 17.6637 22.5024 18.1832 22.2047 18.5264C21.9069 18.8694 21.3875 18.9063 21.0442 18.6084C20.8316 18.4239 15.4678 13.7686 15.2611 13.5892L13.0392 15.5176C12.8845 15.6519 12.6923 15.719 12.5 15.719C12.3077 15.719 12.1155 15.6519 11.9608 15.5176L9.73891 13.5892C9.53216 13.7686 4.16837 18.4239 3.9558 18.6084C3.61266 18.9062 3.0931 18.8695 2.79531 18.5264C2.49752 18.1832 2.53426 17.6637 2.87741 17.3659L8.48393 12.4999L2.87741 7.63406C2.53432 7.33627 2.49758 6.81676 2.79531 6.47362C3.09315 6.13053 3.61266 6.09368 3.9558 6.39157C4.23385 6.63287 11.9952 13.3691 12.5 13.8072C12.9372 13.4277 20.7429 6.65311 21.0442 6.39157C21.3873 6.09373 21.9069 6.13042 22.2047 6.47362C22.5025 6.81676 22.4657 7.33632 22.1226 7.63406L16.5161 12.4999L22.1226 17.3659Z" fill="black"/>
</g>
<defs>
<clipPath id="clip0_423_288">
<rect width="25" height="25" fill="white"/>
</clipPath>
</defs>
</svg>
