<svg width="25" height="25" viewBox="0 0 25 25" fill="none" xmlns="http://www.w3.org/2000/svg">
<g clip-path="url(#clip0_423_292)">
<path fill-rule="evenodd" clip-rule="evenodd" d="M14.0625 18.75H10.9375V21.875H14.0625V18.75ZM21.875 15.625H23.4375C24.3 15.625 25 16.3188 25 17.1875C25 18.05 24.3047 18.75 23.4375 18.75H17.1875V21.875C17.1875 22.7033 16.8587 23.4976 16.2733 24.0836C15.6879 24.6696 14.8939 24.9992 14.0656 25H10.9344C10.5239 25.0008 10.1173 24.9205 9.73799 24.7637C9.35865 24.607 9.01403 24.3767 8.72393 24.0864C8.43383 23.796 8.20397 23.4511 8.04756 23.0716C7.89115 22.6921 7.81126 22.2855 7.8125 21.875V18.75H1.5625C0.7 18.75 0 18.0562 0 17.1875C0 16.325 0.695312 15.625 1.5625 15.625H3.125V3.13906C3.12541 2.30666 3.45627 1.50847 4.04487 0.919867C4.63347 0.331269 5.43166 0.000414029 6.26406 0L18.7359 0C19.5683 0.000414029 20.3665 0.331269 20.9551 0.919867C21.5437 1.50847 21.8746 2.30666 21.875 3.13906V15.625ZM6.25 4.68281V15.625H18.75V4.68281C18.75 3.83281 18.0531 3.125 17.1922 3.125H7.80781C6.95781 3.125 6.25 3.82187 6.25 4.68281Z" fill="black"/>
</g>
<defs>
<clipPath id="clip0_423_292">
<rect width="25" height="25" fill="white"/>
</clipPath>
</defs>
</svg>
